<svg id="katman_1" data-name="katman 1" xmlns="http://www.w3.org/2000/svg" viewBox="0 0 175.89 152.38"><defs><style>.cls-1,.cls-2{fill:#fff;stroke-miterlimit:10;}.cls-1{stroke:#1d1d1b;stroke-linecap:round;}.cls-2{stroke:#0b0b0b;}</style></defs><path class="cls-1" d="M368.13,274.54c.69,1.12,1.43,2.21,2.19,3.28l-58.87-4.65,3.74-5Z" transform="translate(-301.93 -132.14)"/><path class="cls-1" d="M328.21,250.81l3.41-4.49L361.38,259c.35,1.29.75,2.56,1.19,3.82l-34.36-12.05" transform="translate(-301.93 -132.14)"/><path class="cls-1" d="M392.82,189.69c-1.2.58-2.36,1.21-3.5,1.86l-5.59-13.73,3.63-4.77Z" transform="translate(-301.93 -132.14)"/><path class="cls-1" d="M383.81,195.11c-1.06.76-2.09,1.56-3.09,2.39l-5.13-9,3.15-4.14Z" transform="translate(-301.93 -132.14)"/><path class="cls-1" d="M401.7,186.24c-1.14.34-2.27.7-3.39,1.11l-5.7-21.19,4.33-5.71Z" transform="translate(-301.93 -132.14)"/><path class="cls-1" d="M418.78,183.74c-.73,0-1.44,0-2.16,0l-1.79-46.7,3-4.13,3.08,3.89-.33,46.94C420,183.77,419.39,183.74,418.78,183.74Z" transform="translate(-301.93 -132.14)"/><path class="cls-1" d="M364.32,267.29c.53,1.21,1.1,2.39,1.7,3.54l-45.81-9.36,3.07-4.17Z" transform="translate(-301.93 -132.14)"/><path class="cls-1" d="M429.88,184.79c-1.18-.22-2.38-.41-3.59-.56l2.22-37.57,4.58,5.51Z" transform="translate(-301.93 -132.14)"/><path class="cls-1" d="M439.12,187.31c-1.34-.49-2.71-.91-4.09-1.31l4.84-25.21,4.24,5.29Z" transform="translate(-301.93 -132.14)"/><path class="cls-1" d="M463.92,204.48c-.83-.95-1.68-1.89-2.56-2.79l4.75-7.85,2.87,3.71Z" transform="translate(-301.93 -132.14)"/><path class="cls-1" d="M369,210.6c-.77,1.17-1.5,2.38-2.19,3.61l-5.91-6.41,2.32-3.05Z" transform="translate(-301.93 -132.14)"/><path class="cls-1" d="M359.88,234.62c-.23,1.62-.4,3.26-.5,4.91l-15.29-9.61,3.48-4.57Z" transform="translate(-301.93 -132.14)"/><path class="cls-1" d="M359.42,247.6c.11,1.41.25,2.8.45,4.18L335.65,241l3-4Z" transform="translate(-301.93 -132.14)"/><path class="cls-1" d="M363.12,222.16c-.54,1.4-1,2.83-1.44,4.28l-8.8-8.07,3.17-4.16Z" transform="translate(-301.93 -132.14)"/><path class="cls-1" d="M448.12,191.48c-1.21-.69-2.44-1.34-3.7-1.94l5.08-16.65,3.92,4.93Z" transform="translate(-301.93 -132.14)"/><path class="cls-1" d="M456.58,197.29c-1.16-1-2.37-1.86-3.6-2.73l5.27-10.64,3.37,4.36Z" transform="translate(-301.93 -132.14)"/><path class="cls-1" d="M372.45,280.63q1.41,1.75,3,3.39H302.94l3.49-4.59Z" transform="translate(-301.93 -132.14)"/><path class="cls-1" d="M470.67,214.1c-.74-1.3-1.51-2.57-2.33-3.8q2.79-3.31,5.57-6.62l2.9,3.75Z" transform="translate(-301.93 -132.14)"/><path class="cls-1" d="M376.08,201.81c-1.05,1.08-2.07,2.2-3,3.36l-5.27-6.37,3.39-4.46Z" transform="translate(-301.93 -132.14)"/><path class="cls-1" d="M410.4,184.34c-1.28.18-2.55.39-3.79.65l-3.38-32.8,4.77-6Z" transform="translate(-301.93 -132.14)"/><path class="cls-2" d="M377.49,249.89v-3.57l-6.81-2.3a32.66,32.66,0,0,1,0-4.08c.17-.13,14.13-4.6,14.13-4.6l12.34-15.83,6.25,3.19.9-4.85-2.21-1.91s-1.11-8.3-.73-8.3,14.94-7.26,14.94-7.26v-6.32l2.55-.51v-5.7l.77,5.7,1.91.51v6.22l1.28.1v1.9l8.93.51,6.64,8.42L454.72,207l11.88,19.15,6.25,1,4.47,11.11v1.78l-99.19,9.83" transform="translate(-301.93 -132.14)"/></svg>